<svg width="157" height="157" viewBox="0 0 157 157" fill="none" xmlns="http://www.w3.org/2000/svg">
<path d="M65.4167 19.625H26.1667C24.4317 19.625 22.7678 20.3142 21.541 21.541C20.3142 22.7678 19.625 24.4317 19.625 26.1667V65.4167C19.625 67.1516 20.3142 68.8155 21.541 70.0423C22.7678 71.2691 24.4317 71.9583 26.1667 71.9583H65.4167C67.1516 71.9583 68.8155 71.2691 70.0423 70.0423C71.2691 68.8155 71.9583 67.1516 71.9583 65.4167V26.1667C71.9583 24.4317 71.2691 22.7678 70.0423 21.541C68.8155 20.3142 67.1516 19.625 65.4167 19.625ZM130.833 19.625H91.5833C89.8484 19.625 88.1845 20.3142 86.9577 21.541C85.7309 22.7678 85.0417 24.4317 85.0417 26.1667V65.4167C85.0417 67.1516 85.7309 68.8155 86.9577 70.0423C88.1845 71.2691 89.8484 71.9583 91.5833 71.9583H130.833C132.568 71.9583 134.232 71.2691 135.459 70.0423C136.686 68.8155 137.375 67.1516 137.375 65.4167V26.1667C137.375 24.4317 136.686 22.7678 135.459 21.541C134.232 20.3142 132.568 19.625 130.833 19.625ZM65.4167 85.0417H26.1667C24.4317 85.0417 22.7678 85.7309 21.541 86.9577C20.3142 88.1845 19.625 89.8484 19.625 91.5833V130.833C19.625 132.568 20.3142 134.232 21.541 135.459C22.7678 136.686 24.4317 137.375 26.1667 137.375H65.4167C67.1516 137.375 68.8155 136.686 70.0423 135.459C71.2691 134.232 71.9583 132.568 71.9583 130.833V91.5833C71.9583 89.8484 71.2691 88.1845 70.0423 86.9577C68.8155 85.7309 67.1516 85.0417 65.4167 85.0417ZM111.208 85.0417C116.328 85.0417 121.335 86.5435 125.609 89.3611C129.884 92.1787 133.238 96.1883 135.256 100.893C137.274 105.598 137.868 110.792 136.963 115.831C136.059 120.87 133.696 125.533 130.168 129.242C126.639 132.952 122.1 135.545 117.113 136.7C112.125 137.855 106.909 137.522 102.109 135.742C97.3085 133.961 93.1362 130.812 90.1084 126.684C87.0806 122.556 85.3304 117.63 85.0744 112.517L85.0417 111.208L85.0744 109.9C85.41 103.195 88.3099 96.8756 93.1742 92.2488C98.0385 87.6219 104.495 85.0417 111.208 85.0417Z" fill="black"/>
</svg>
