<svg width="198" height="198" viewBox="0 0 198 198" fill="none" xmlns="http://www.w3.org/2000/svg">
<path d="M140.25 165H33V57.75C33 53.2125 29.2875 49.5 24.75 49.5C20.2125 49.5 16.5 53.2125 16.5 57.75V165C16.5 174.075 23.925 181.5 33 181.5H140.25C144.788 181.5 148.5 177.788 148.5 173.25C148.5 168.712 144.788 165 140.25 165Z" fill="black"/>
<path d="M165 16.5H66C56.925 16.5 49.5 23.925 49.5 33V132C49.5 141.075 56.925 148.5 66 148.5H165C174.075 148.5 181.5 141.075 181.5 132V33C181.5 23.925 174.075 16.5 165 16.5ZM115.583 123.75C110.715 123.75 106.92 119.872 106.92 115.087C106.92 110.22 110.798 106.507 115.583 106.507C120.45 106.507 124.163 110.22 124.163 115.087C124.08 119.872 120.45 123.75 115.583 123.75ZM136.208 72.8475C131.01 80.52 126.06 82.83 123.337 87.78C122.677 88.935 122.265 89.925 122.017 91.8225C121.605 95.04 119.047 97.4325 115.83 97.4325H115.583C111.953 97.4325 109.065 94.2975 109.395 90.6675C109.643 88.3575 110.138 85.965 111.458 83.7375C114.84 77.715 121.193 74.1675 124.905 68.8875C128.865 63.2775 126.638 52.8825 115.5 52.8825C110.467 52.8825 107.167 55.5225 105.105 58.6575C103.537 61.05 100.403 61.875 97.7625 60.72C94.2975 59.235 92.8125 54.945 94.9575 51.8925C99.165 45.7875 106.177 41.25 115.417 41.25C125.565 41.25 132.577 45.87 136.125 51.645C139.178 56.6775 140.91 65.9175 136.208 72.8475Z" fill="black"/>
</svg>
