<svg width="198" height="198" viewBox="0 0 198 198" fill="none" xmlns="http://www.w3.org/2000/svg">
<path d="M148.5 123.75H49.5L16.5 156.75V24.75C16.5 22.562 17.3692 20.4635 18.9164 18.9164C20.4635 17.3692 22.562 16.5 24.75 16.5H148.5C150.688 16.5 152.786 17.3692 154.334 18.9164C155.881 20.4635 156.75 22.562 156.75 24.75V115.5C156.75 117.688 155.881 119.786 154.334 121.334C152.786 122.881 150.688 123.75 148.5 123.75ZM189.75 74.25V189.75L156.75 156.75H66C63.812 156.75 61.7135 155.881 60.1664 154.334C58.6192 152.786 57.75 150.688 57.75 148.5V140.25H173.25V66H181.5C183.688 66 185.786 66.8692 187.334 68.4164C188.881 69.9635 189.75 72.062 189.75 74.25ZM67.5675 33C60.39 33 54.615 34.65 50.16 37.8675C45.87 41.25 43.725 45.9525 43.8075 52.47L43.89 52.7175H59.8125C59.895 50.2425 60.6375 48.345 62.1225 47.025C63.6502 45.7582 65.5833 45.0845 67.5675 45.1275C70.125 45.1275 72.27 45.9525 73.755 47.4375C75.24 49.005 75.9 51.15 75.9 53.625C75.9 56.265 75.3225 58.4925 74.0025 60.39C72.8475 62.2875 71.115 63.9375 68.97 65.2575C64.7625 68.0625 61.875 70.5375 60.3075 72.765C58.6575 74.91 57.75 78.375 57.75 82.5H74.25C74.25 79.9425 74.58 77.88 75.3225 76.395C76.065 74.91 77.4675 73.425 79.53 72.105C83.2425 70.125 86.295 67.7325 88.6875 64.4325C91.08 61.1325 92.3175 57.75 92.3175 53.625C92.3175 47.355 90.09 42.3225 85.635 38.61C81.2625 34.8975 75.24 33 67.5675 33ZM57.75 90.75V107.25H74.25V90.75H57.75ZM107.25 107.25H123.75V90.75H107.25V107.25ZM107.25 33V82.5H123.75V33H107.25Z" fill="black"/>
</svg>
