<svg width="165" height="165" viewBox="0 0 165 165" fill="none" xmlns="http://www.w3.org/2000/svg">
<path fill-rule="evenodd" clip-rule="evenodd" d="M50.985 20.625C49.0956 24.9627 48.1219 29.6437 48.125 34.375C48.125 38.0217 49.5737 41.5191 52.1523 44.0977C54.7309 46.6763 58.2283 48.125 61.875 48.125H103.125C106.772 48.125 110.269 46.6763 112.848 44.0977C115.426 41.5191 116.875 38.0217 116.875 34.375C116.875 29.4869 115.857 24.8325 114.015 20.625H123.75C127.397 20.625 130.894 22.0737 133.473 24.6523C136.051 27.2309 137.5 30.7283 137.5 34.375V137.5C137.5 141.147 136.051 144.644 133.473 147.223C130.894 149.801 127.397 151.25 123.75 151.25H41.25C37.6033 151.25 34.1059 149.801 31.5273 147.223C28.9487 144.644 27.5 141.147 27.5 137.5V34.375C27.5 30.7283 28.9487 27.2309 31.5273 24.6523C34.1059 22.0737 37.6033 20.625 41.25 20.625H50.985ZM82.5 96.25H61.875C60.0516 96.25 58.303 96.9743 57.0136 98.2636C55.7243 99.553 55 101.302 55 103.125C55 104.948 55.7243 106.697 57.0136 107.986C58.303 109.276 60.0516 110 61.875 110H82.5C84.3234 110 86.072 109.276 87.3614 107.986C88.6507 106.697 89.375 104.948 89.375 103.125C89.375 101.302 88.6507 99.553 87.3614 98.2636C86.072 96.9743 84.3234 96.25 82.5 96.25ZM103.125 68.75H61.875C60.1227 68.7519 58.4373 69.4229 57.1631 70.6258C55.8889 71.8287 55.1221 73.4728 55.0194 75.2221C54.9167 76.9714 55.4859 78.6939 56.6106 80.0376C57.7353 81.3813 59.3306 82.2449 61.0706 82.4519L61.875 82.5H103.125C104.948 82.5 106.697 81.7757 107.986 80.4864C109.276 79.197 110 77.4484 110 75.625C110 73.8016 109.276 72.053 107.986 70.7636C106.697 69.4743 104.948 68.75 103.125 68.75ZM82.5 13.75C85.4018 13.7501 88.2709 14.3625 90.9199 15.5471C93.5688 16.7318 95.938 18.4621 97.8725 20.625C100.815 23.9112 102.713 28.1394 103.063 32.8075L103.125 34.375H61.875C61.875 29.3906 63.6419 24.8188 66.5844 21.2575L67.1275 20.625C70.9087 16.4037 76.395 13.75 82.5 13.75Z" fill="black"/>
</svg>
