<svg width="165" height="165" viewBox="0 0 165 165" fill="none" xmlns="http://www.w3.org/2000/svg">
<path d="M137.5 116.875C141.147 116.875 144.644 115.426 147.223 112.848C149.801 110.269 151.25 106.772 151.25 103.125V27.5C151.25 23.8533 149.801 20.3559 147.223 17.7773C144.644 15.1987 141.147 13.75 137.5 13.75H65.0375C67.4438 17.9438 68.75 22.6875 68.75 27.5H137.5V103.125H75.625V116.875M103.125 48.125V61.875H61.875V151.25H48.125V110H34.375V151.25H20.625V96.25H10.3125V61.875C10.3125 58.2283 11.7612 54.7309 14.3398 52.1523C16.9184 49.5737 20.4158 48.125 24.0625 48.125H103.125ZM55 27.5C55 31.1467 53.5513 34.6441 50.9727 37.2227C48.3941 39.8013 44.8967 41.25 41.25 41.25C37.6033 41.25 34.1059 39.8013 31.5273 37.2227C28.9487 34.6441 27.5 31.1467 27.5 27.5C27.5 23.8533 28.9487 20.3559 31.5273 17.7773C34.1059 15.1987 37.6033 13.75 41.25 13.75C44.8967 13.75 48.3941 15.1987 50.9727 17.7773C53.5513 20.3559 55 23.8533 55 27.5Z" fill="black"/>
</svg>
