<svg width="161" height="161" viewBox="0 0 161 161" fill="none" xmlns="http://www.w3.org/2000/svg">
<path fill-rule="evenodd" clip-rule="evenodd" d="M40.25 13.4167C34.9125 13.4167 29.7936 15.537 26.0195 19.3111C22.2453 23.0853 20.125 28.2042 20.125 33.5417V127.458C20.125 132.796 22.2453 137.915 26.0195 141.689C29.7936 145.463 34.9125 147.583 40.25 147.583H80.5C85.8375 147.583 90.9564 145.463 94.7305 141.689C98.5047 137.915 100.625 132.796 100.625 127.458V33.5417C100.625 28.2042 98.5047 23.0853 94.7305 19.3111C90.9564 15.537 85.8375 13.4167 80.5 13.4167H40.25ZM109.299 48.9239C110.557 47.6662 112.263 46.9598 114.042 46.9598C115.82 46.9598 117.526 47.6662 118.784 48.9239L145.618 75.7572C146.875 77.0152 147.582 78.7212 147.582 80.5C147.582 82.2788 146.875 83.9848 145.618 85.2428L118.784 112.076C117.519 113.298 115.825 113.974 114.066 113.959C112.307 113.944 110.624 113.238 109.381 111.994C108.137 110.751 107.431 109.068 107.416 107.309C107.401 105.55 108.077 103.856 109.299 102.591L124.681 87.2083H67.0833C65.3042 87.2083 63.5979 86.5016 62.3398 85.2435C61.0818 83.9854 60.375 82.2792 60.375 80.5C60.375 78.7208 61.0818 77.0145 62.3398 75.7565C63.5979 74.4984 65.3042 73.7917 67.0833 73.7917H124.681L109.299 58.4094C108.041 57.1514 107.335 55.4455 107.335 53.6667C107.335 51.8878 108.041 50.1819 109.299 48.9239Z" fill="black"/>
</svg>
