<svg width="195" height="195" viewBox="0 0 195 195" fill="none" xmlns="http://www.w3.org/2000/svg">
<g clip-path="url(#clip0_224_38)">
<path d="M43.3333 102.917V59.5833H27.0833C22.7736 59.5833 18.6403 61.2954 15.5928 64.3429C12.5454 67.3903 10.8333 71.5236 10.8333 75.8333V173.333C10.8414 174.339 11.1294 175.323 11.6652 176.175C12.201 177.026 12.9633 177.712 13.8667 178.154C14.737 178.55 15.6966 178.708 16.648 178.613C17.5994 178.518 18.5086 178.173 19.2833 177.613L47.1792 157.083H119.979C122.032 157.144 124.076 156.783 125.983 156.021C127.891 155.26 129.622 154.115 131.069 152.658C132.516 151.201 133.649 149.462 134.397 147.549C135.145 145.636 135.492 143.59 135.417 141.538V135.417H75.8333C67.2138 135.417 58.9473 131.993 52.8524 125.898C46.7574 119.803 43.3333 111.536 43.3333 102.917Z" fill="black"/>
<path d="M167.917 21.6667H75.8333C71.5236 21.6667 67.3903 23.3787 64.3429 26.4262C61.2954 29.4736 59.5833 33.6069 59.5833 37.9167V102.917C59.5833 107.226 61.2954 111.36 64.3429 114.407C67.3903 117.455 71.5236 119.167 75.8333 119.167H149.229L175.121 139.262C175.891 139.832 176.797 140.187 177.749 140.291C178.7 140.396 179.663 140.246 180.538 139.858C181.459 139.419 182.238 138.729 182.784 137.866C183.331 137.004 183.622 136.004 183.625 134.983V37.9167C183.627 33.6991 181.99 29.6459 179.059 26.6135C176.127 23.5812 172.132 21.8072 167.917 21.6667Z" fill="black"/>
</g>
<defs>
<clipPath id="clip0_224_38">
<rect width="195" height="195" fill="white"/>
</clipPath>
</defs>
</svg>
