<svg width="122" height="122" viewBox="0 0 122 122" fill="none" xmlns="http://www.w3.org/2000/svg">
<path d="M48.3075 3.18219e-06C40.7468 0.00404436 33.2924 1.78178 26.5436 5.19033C19.7948 8.59888 13.9397 13.5432 9.44903 19.6258C4.95834 25.7084 1.95727 32.7598 0.687016 40.213C-0.583234 47.6663 -0.0872296 55.3136 2.13517 62.5404C4.35756 69.7671 8.24436 76.3717 13.4832 81.8233C18.722 87.2749 25.1666 91.4214 32.2992 93.9296C39.4318 96.4378 47.0533 97.2377 54.5513 96.265C62.0492 95.2924 69.2143 92.5743 75.4708 88.3292L105.341 118.175C106.171 119.065 107.171 119.78 108.283 120.275C109.394 120.77 110.594 121.037 111.811 121.058C113.028 121.079 114.237 120.856 115.365 120.4C116.494 119.944 117.519 119.266 118.379 118.405C119.24 117.544 119.918 116.519 120.374 115.391C120.83 114.263 121.054 113.054 121.032 111.837C121.011 110.62 120.744 109.42 120.249 108.308C119.754 107.197 119.04 106.196 118.149 105.367L88.3033 75.4967C93.241 68.2295 96.1045 59.7539 96.5858 50.9812C97.0671 42.2085 95.1481 33.4705 91.0351 25.7068C86.9222 17.9431 80.7708 11.4473 73.2424 6.91791C65.714 2.3885 57.0934 -0.00318446 48.3075 3.18219e-06ZM18.0992 48.3333C18.0992 40.3216 21.2818 32.638 26.947 26.9728C32.6121 21.3077 40.2958 18.125 48.3075 18.125C56.3193 18.125 64.0029 21.3077 69.668 26.9728C75.3332 32.638 78.5158 40.3216 78.5158 48.3333C78.5158 56.3451 75.3332 64.0287 69.668 69.6939C64.0029 75.359 56.3193 78.5417 48.3075 78.5417C40.2958 78.5417 32.6121 75.359 26.947 69.6939C21.2818 64.0287 18.0992 56.3451 18.0992 48.3333Z" fill="black"/>
</svg>
