<svg width="153" height="153" viewBox="0 0 153 153" fill="none" xmlns="http://www.w3.org/2000/svg">
<path d="M58.3504 34.476C66.4275 19.992 70.4629 12.75 76.5 12.75C82.5371 12.75 86.5725 19.992 94.6496 34.476L96.7406 38.2245C99.0356 42.3427 100.183 44.4019 101.968 45.7597C103.753 47.1176 105.984 47.6212 110.447 48.6285L114.501 49.5465C130.184 53.0974 138.019 54.8696 139.887 60.8685C141.748 66.861 136.406 73.1149 125.715 85.6163L122.948 88.8484C119.914 92.3993 118.39 94.1779 117.708 96.3709C117.026 98.5702 117.255 100.942 117.714 105.678L118.135 109.994C119.748 126.678 120.558 135.016 115.674 138.72C110.791 142.424 103.447 139.045 88.7719 132.288L84.966 130.541C80.7968 128.616 78.7121 127.659 76.5 127.659C74.2879 127.659 72.2032 128.616 68.034 130.541L64.2345 132.288C49.5529 139.045 42.2089 142.424 37.332 138.726C32.4424 135.016 33.252 126.678 34.8649 109.994L35.2856 105.685C35.7446 100.942 35.9741 98.5703 35.2856 96.3773C34.6099 94.1779 33.0863 92.3992 30.0518 88.8547L27.285 85.6163C16.5941 73.1213 11.2519 66.8674 13.1134 60.8685C14.9749 54.8696 22.8225 53.091 38.505 49.5465L42.5595 48.6285C47.0156 47.6212 49.2405 47.1176 51.0319 45.7597C52.8233 44.4019 53.9644 42.3427 56.2594 38.2245L58.3504 34.476Z" fill="black"/>
</svg>
